<?xml version="1.0" encoding="utf-8"?>
<!-- Generator: Adobe Illustrator 22.1.0, SVG Export Plug-In . SVG Version: 6.00 Build 0)  -->
<svg version="1.1" id="Layer_1" xmlns="http://www.w3.org/2000/svg" xmlns:xlink="http://www.w3.org/1999/xlink" x="0px" y="0px"
	 viewBox="0 0 36.3 35.4" style="enable-background:new 0 0 36.3 35.4;" xml:space="preserve">
<style type="text/css">
	.st0{fill:#8D735E;}
	.st1{opacity:0.7;}
	.st2{fill:#FFFFFF;}
	.st3{fill:#7E6454;}
	.st4{fill:#D0B18A;}
	.st5{fill:#232222;}
</style>
<title>astro-head</title>
<g id="Layer_2_1_">
	<g id="Layer_1-2">
		<g>
			<g>
				<path class="st0" d="M29.9,11.2c2.1-10.8-5.1-5.2-6.5-4c-2.7-0.6-5.4-0.7-8.1-0.4c-0.4,0-0.7,0-1,0.1C12.8,5.5,6-0.5,7.4,10.4
					C7.1,10.7,7,10.9,7,10.9c-8.2,11.6,3.2,18.5,3.2,18.5c4.4,2.3,9.5,2.7,14.1,1.1C33.2,27.5,34.1,17,29.9,11.2z"/>
				<g class="st1">
					<path class="st2" d="M9.3,4c1.7,0,4.1,2.1,4.9,2.8c0.3,0,0.7-0.1,1-0.1c1-0.1,1.9-0.2,2.9-0.2c1.8,0,3.5,0.2,5.2,0.6
						c0.8-0.7,3.1-2.5,4.9-2.5c1.5,0,2.6,1.5,1.6,6.6c4.2,5.9,3.3,16.4-5.5,19.3c-1.9,0.6-4,1-6,1c-2.8,0-5.6-0.7-8.1-2
						c0,0-11.5-6.9-3.2-18.5c0,0,0.1-0.2,0.4-0.5C6.7,5.5,7.8,4,9.3,4 M9.3,0L9.3,0C7.6,0,6.1,0.7,5,1.9C3.5,3.5,3,5.8,3.2,9.2
						C0.4,13.5-0.6,17.8,0.3,22c1.4,6.8,7.2,10.4,7.9,10.8l0.1,0.1c3.1,1.7,6.5,2.6,10,2.5c2.5,0,4.9-0.4,7.3-1.2
						c4.7-1.5,8.4-5.1,9.9-9.8c1.5-4.7,1-9.8-1.4-14.1c0.5-3.5,0-5.9-1.4-7.7c-1.1-1.3-2.7-2-4.4-2C26,0.8,24,1.6,22.3,2.9
						c-1.4-0.2-2.8-0.3-4.2-0.3c-1.1,0-2,0.1-2.6,0.1C13.7,1.3,11.5,0,9.3,0z"/>
				</g>
			</g>
			<path id="_Path_" class="st3" d="M8.4,10.4c-0.8-1-0.6-4.7,0.8-5.1c0.4,0,0.8,0.1,1.1,0.3c0,0,3.1,2.7,1.4,4.2
				C10.3,11.2,8.9,11.1,8.4,10.4z"/>
			<path id="_Path_2" class="st3" d="M8.4,10.4L8.4,10.4c-0.1-0.3-0.2-0.7-0.3-1C8,9,8,8.5,8,8.1c0-0.6,0.1-1.2,0.3-1.8
				c0.1-0.2,0.2-0.4,0.4-0.6C8.8,5.6,9,5.4,9.2,5.4V5.3v0.1h0.1c0.1,0,0.3,0,0.4,0.1c0.2,0,0.3,0.1,0.4,0.2l0,0
				c0.4,0.3,0.7,0.7,1,1.1c0.2,0.3,0.4,0.6,0.6,1C12,8.1,12,8.4,12,8.8c0,0.4-0.2,0.7-0.4,1c-0.6,0.6-1.3,1-2.2,1
				C9,10.8,8.7,10.6,8.4,10.4L8.4,10.4l-0.1,0.1C8.5,10.8,9,11,9.4,11c0.9,0,1.7-0.4,2.3-1.1c0.3-0.3,0.5-0.7,0.5-1.1
				c0-0.4-0.1-0.8-0.3-1.2c-0.3-0.5-0.6-1-1-1.5c-0.2-0.2-0.4-0.4-0.6-0.6l-0.1,0.1l0.1-0.1C10.2,5.4,10,5.3,9.8,5.2
				c-0.2,0-0.3-0.1-0.5-0.1H9.1C8.9,5.2,8.7,5.4,8.6,5.6C8.3,5.9,8.1,6.3,8,6.7C7.9,7.1,7.8,7.6,7.8,8.1c0,0.5,0,0.9,0.1,1.4
				C7.9,9.8,8.1,10.2,8.4,10.4L8.4,10.4z"/>
			<path id="_Path_3" class="st3" d="M6.2,13.7c0,0-5.1,9,3.9,14.2C10.1,28,3,21.7,6.2,13.7z"/>
			<path id="_Path_4" class="st3" d="M29,11.1c0.9-1,0.9-4.6-0.5-5.2c-0.4-0.1-0.8,0-1.1,0.3c0,0-3.2,2.5-1.7,4.1
				C27,11.7,28.4,11.7,29,11.1z"/>
			<path id="_Path_5" class="st3" d="M29,11.1L29,11.1c0.3-0.2,0.5-0.6,0.5-0.9c0.1-0.4,0.2-0.9,0.2-1.3c0-0.6-0.1-1.2-0.3-1.8
				c-0.1-0.3-0.2-0.5-0.4-0.7c-0.1-0.2-0.3-0.4-0.6-0.4h-0.2c-0.2,0-0.3,0-0.5,0c-0.2,0-0.4,0.1-0.6,0.3l0.1,0.1l-0.1-0.1
				c-0.4,0.3-0.7,0.6-1,1c-0.3,0.3-0.5,0.6-0.7,1c-0.2,0.4-0.3,0.7-0.4,1.1c0,0.4,0.1,0.9,0.5,1.2c0.6,0.7,1.4,1.1,2.3,1.2
				c0.4,0,0.9-0.1,1.2-0.4L29,11.1L28.9,11c-0.3,0.3-0.6,0.4-1,0.4c-0.8-0.1-1.6-0.5-2.1-1.1c-0.3-0.3-0.4-0.6-0.4-1
				c0-0.4,0.1-0.7,0.3-1c0.3-0.5,0.6-1,1.1-1.4c0.2-0.2,0.3-0.3,0.5-0.4l0.1-0.1l0,0l0,0c0.1-0.2,0.3-0.3,0.5-0.3c0.1,0,0.3,0,0.4,0
				h0.1V5.9V6c0.2,0.1,0.4,0.2,0.5,0.4c0.2,0.3,0.4,0.7,0.4,1.1c0.1,0.5,0.1,0.9,0.1,1.4c0,0.4-0.1,0.8-0.2,1.3
				C29.2,10.4,29.1,10.7,29,11.1L29,11.1z"/>
			<path id="_Path_6" class="st4" d="M29.6,21c-0.1,3.9-3.3,7-7.5,8c-1.1,0.2-2.1,0.3-3.2,0.3c-4.5-0.1-8.2-2.6-9.6-5.9l-0.1-0.3
				c-0.3-0.9-0.5-1.8-0.4-2.8c0.2-4.8,5.2-8.6,10.9-8.4c1,0,2,0.2,3,0.5C26.9,13.7,29.7,17.1,29.6,21z"/>
			
				<ellipse transform="matrix(3.280625e-02 -0.9995 0.9995 3.280625e-02 -9.853 36.5047)" class="st5" cx="13.9" cy="23.3" rx="1.5" ry="1"/>
			
				<ellipse transform="matrix(3.280625e-02 -0.9995 0.9995 3.280625e-02 -1.1184 46.161)" class="st5" cx="23.3" cy="23.7" rx="1.5" ry="1"/>
			<path class="st5" d="M10.1,24.7c0,0-0.6-6.1,0.9-6.2c0,0,0.7,1,1.2,1.1c0.1,0-0.2-3.1,1.5-3.9c0,0,5.8,2.6,6.5,1.3
				c-0.2-0.1-2.3-1.1-2.2-2c0.1-0.5,4.6-0.2,6.4,4.3c0.3,0.2,0.9-0.6,1.1-1.8c0.4-2.3,1.6,4,1.7,4.1s0.5-0.1,0.9-0.6s0,3.7-0.1,4.1
				s1.6-1.7,1.5-4.6c-0.3-3-2-5.6-4.7-7.1c-2.1-1-5.6-2.7-11.2-0.2c-3.5,1.5-5.5,5.2-5,9C9,23.1,9.5,24,10.1,24.7z"/>
		</g>
	</g>
</g>
</svg>
